<svg height="512" viewBox="0 0 64 64" width="512" xmlns="http://www.w3.org/2000/svg"><path d="m28 48a17 17 0 0 1 -17-17v-28h-1a4 4 0 0 0 -4 4v50a4 4 0 0 0 4 4h40v-13z" fill="#cff09e"/><path d="m10 53h40a0 0 0 0 1 0 0v8a0 0 0 0 1 0 0h-40a4 4 0 0 1 -4-4 4 4 0 0 1 4-4z" fill="#a8dba8"/><path d="m42.275 7.017a15.279 15.279 0 0 0 -14.275 15.407v4.576l-6 8h6v6a3 3 0 0 0 3 3h7v5h18v-19.538a14.984 14.984 0 0 0 -13.725-22.445z" fill="#79bd9a"/><g fill="#3b8686"><path d="m54.043 10.421a16.075 16.075 0 0 0 -3.043-2.264v-5.157a1 1 0 0 0 -1-1h-40a5.006 5.006 0 0 0 -5 5v50a5.006 5.006 0 0 0 5 5h40a1 1 0 0 0 1-1v-11h5a1 1 0 0 0 1-1v-19.275a15.971 15.971 0 0 0 -2.957-19.3zm-5.043 49.579h-39a3 3 0 0 1 0-6h39zm0-8h-39a4.948 4.948 0 0 0 -3 1.026v-46.026a3 3 0 0 1 3-3h39v3.176a16 16 0 0 0 -6.771-1.158 16.2 16.2 0 0 0 -15.229 16.406v4.243l-5.8 7.733a1 1 0 0 0 .8 1.6h5v5a4 4 0 0 0 4 4h6v4a1 1 0 0 0 1 1h11zm6.133-23.037a1 1 0 0 0 -.133.5v18.537h-16v-4a1 1 0 0 0 -1-1h-7a2 2 0 0 1 -2-2v-6a1 1 0 0 0 -1-1h-4l4.8-6.4a1 1 0 0 0 .2-.6v-4.576a14.2 14.2 0 0 1 13.322-14.408 13.984 13.984 0 0 1 12.811 20.947z"/><path d="m53 18h-3a1 1 0 0 0 -1 1v5a6.006 6.006 0 0 1 -5 5.91v-9.91h1a1 1 0 0 0 0-2h-4a1 1 0 0 0 0 2h1v9.91a6.006 6.006 0 0 1 -5-5.91v-5a1 1 0 0 0 -1-1h-3a1 1 0 0 0 0 2h2v4a8.008 8.008 0 0 0 7 7.931v6.069h-1a1 1 0 0 0 0 2h4a1 1 0 0 0 0-2h-1v-6.069a8.008 8.008 0 0 0 7-7.931v-4h2a1 1 0 0 0 0-2z"/><path d="m22 43h-7.586l2.293-2.293a1 1 0 0 0 -1.414-1.414l-4 4a1 1 0 0 0 0 1.414l4 4a1 1 0 0 0 1.414-1.414l-2.293-2.293h7.586a1 1 0 0 0 0-2z"/><path d="m12 17h7.586l-2.293 2.293a1 1 0 1 0 1.414 1.414l4-4a1 1 0 0 0 0-1.414l-4-4a1 1 0 0 0 -1.414 1.414l2.293 2.293h-7.586a1 1 0 0 0 0 2z"/></g></svg>