<svg xmlns="http://www.w3.org/2000/svg" height="512pt" version="1.1" viewBox="0 0 512 512.00018" width="512pt">
<g id="surface1">
<path d="M 483.820312 93.09375 L 467.925781 93.09375 C 478.027344 92.398438 485.863281 83.460938 484.714844 72.945312 C 483.707031 63.675781 475.578125 56.816406 466.257812 56.816406 L 373.21875 56.816406 C 370.054688 56.816406 369.507812 52.292969 372.582031 51.539062 L 392.195312 46.730469 C 401.742188 44.390625 408.191406 35.144531 406.535156 25.457031 C 404.777344 15.152344 394.875 8.339844 384.632812 10.359375 L 336.382812 19.875 C 319.011719 23.300781 303.054688 31.828125 290.554688 44.363281 L 270.964844 64.007812 L 243.664062 64.007812 L 243.664062 77.570312 C 243.664062 102.734375 264.066406 123.132812 289.230469 123.132812 L 294.699219 123.132812 C 306.179688 123.132812 317.1875 127.703125 325.292969 135.832031 C 342 152.585938 364.6875 162 388.347656 162 L 477.476562 162 C 481.300781 159.183594 484.019531 154.960938 484.667969 149.988281 C 486.0625 139.300781 478.15625 130.148438 467.925781 129.4375 L 483.390625 129.4375 C 492.546875 129.4375 501.121094 122.023438 501.917969 112.902344 C 502.863281 102.132812 494.398438 93.09375 483.820312 93.09375 Z M 483.820312 93.09375 " style=" stroke:none;fill-rule:nonzero;fill:rgb(98.823529%,77.647059%,61.568627%);fill-opacity:1;" />
<path d="M 418.902344 485.652344 L 418.902344 469.757812 C 419.601562 479.863281 428.535156 487.699219 439.054688 486.550781 C 448.320312 485.539062 455.183594 477.414062 455.183594 468.089844 L 455.183594 375.054688 C 455.183594 371.890625 459.707031 371.34375 460.457031 374.414062 L 465.265625 394.03125 C 467.605469 403.574219 476.855469 410.023438 486.542969 408.371094 C 496.84375 406.609375 503.65625 396.710938 501.636719 386.46875 L 492.121094 338.214844 C 488.695312 320.84375 480.171875 304.890625 467.632812 292.390625 L 447.988281 272.800781 L 447.988281 245.5 L 434.429688 245.5 C 409.265625 245.5 388.863281 265.898438 388.863281 291.0625 L 388.863281 296.53125 C 388.863281 308.011719 384.296875 319.019531 376.167969 327.125 C 359.414062 343.832031 349.996094 366.519531 349.996094 390.179688 L 349.996094 479.3125 C 352.816406 483.136719 357.035156 485.855469 362.007812 486.503906 C 372.699219 487.894531 381.851562 479.988281 382.558594 469.757812 L 382.558594 485.226562 C 382.558594 494.378906 389.976562 502.953125 399.09375 503.753906 C 409.867188 504.699219 418.902344 496.230469 418.902344 485.652344 Z M 418.902344 485.652344 " style=" stroke:none;fill-rule:nonzero;fill:rgb(98.823529%,77.647059%,61.568627%);fill-opacity:1;" />
<path d="M 27.808594 418.269531 L 43.703125 418.269531 C 33.597656 418.964844 25.761719 427.902344 26.910156 438.417969 C 27.921875 447.6875 36.046875 454.546875 45.371094 454.546875 L 138.410156 454.546875 C 141.570312 454.546875 142.117188 459.070312 139.046875 459.824219 L 119.429688 464.632812 C 109.886719 466.972656 103.4375 476.21875 105.09375 485.90625 C 106.851562 496.210938 116.753906 503.023438 126.992188 501.003906 L 175.246094 491.488281 C 192.617188 488.0625 208.570312 479.535156 221.074219 467 L 240.660156 447.355469 L 267.960938 447.355469 L 267.960938 433.792969 C 267.960938 408.628906 247.5625 388.230469 222.398438 388.230469 L 216.929688 388.230469 C 205.449219 388.230469 194.441406 383.660156 186.335938 375.53125 C 169.628906 358.777344 146.941406 349.363281 123.28125 349.363281 L 34.148438 349.363281 C 30.324219 352.179688 27.605469 356.402344 26.957031 361.375 C 25.566406 372.0625 33.472656 381.214844 43.703125 381.925781 L 28.234375 381.925781 C 19.082031 381.925781 10.507812 389.339844 9.707031 398.460938 C 8.765625 409.230469 17.230469 418.269531 27.808594 418.269531 Z M 27.808594 418.269531 " style=" stroke:none;fill-rule:nonzero;fill:rgb(98.823529%,77.647059%,61.568627%);fill-opacity:1;" />
<path d="M 92.558594 28.546875 L 92.558594 44.441406 C 91.859375 34.335938 82.921875 26.5 72.40625 27.648438 C 63.140625 28.660156 56.277344 36.785156 56.277344 46.109375 L 56.277344 139.144531 C 56.277344 142.308594 51.753906 142.855469 51.003906 139.785156 L 46.195312 120.167969 C 43.851562 110.625 34.605469 104.175781 24.917969 105.828125 C 14.617188 107.589844 7.800781 117.488281 9.824219 127.730469 L 19.339844 175.984375 C 22.765625 193.355469 31.289062 209.308594 43.828125 221.808594 L 63.472656 241.398438 L 63.472656 268.699219 L 77.03125 268.699219 C 102.195312 268.699219 122.59375 248.300781 122.59375 223.136719 L 122.59375 217.667969 C 122.59375 206.1875 127.164062 195.179688 135.292969 187.074219 C 152.046875 170.367188 161.464844 147.679688 161.464844 124.019531 L 161.464844 34.886719 C 158.644531 31.0625 154.425781 28.34375 149.453125 27.695312 C 138.761719 26.300781 129.609375 34.210938 128.902344 44.441406 L 128.902344 28.972656 C 128.902344 19.820312 121.484375 11.242188 112.367188 10.445312 C 101.59375 9.5 92.558594 17.96875 92.558594 28.546875 Z M 92.558594 28.546875 " style=" stroke:none;fill-rule:nonzero;fill:rgb(98.823529%,77.647059%,61.568627%);fill-opacity:1;" />
<path d="M 511.449219 382.703125 L 501.933594 334.449219 C 498.109375 315.058594 488.691406 297.433594 474.695312 283.476562 L 457.988281 266.816406 L 457.988281 210.035156 C 468.429688 205.90625 475.839844 195.722656 475.839844 183.828125 C 475.839844 180.617188 475.292969 177.535156 474.300781 174.65625 C 486.128906 171.316406 494.828125 160.433594 494.828125 147.546875 C 494.828125 144.144531 494.222656 140.878906 493.109375 137.855469 C 504.09375 134.007812 511.992188 123.546875 511.992188 111.265625 C 511.992188 98.988281 504.09375 88.527344 493.109375 84.675781 C 494.222656 81.652344 494.828125 78.390625 494.828125 74.988281 C 494.828125 59.453125 482.191406 46.816406 466.65625 46.816406 L 410.195312 46.816406 C 415.378906 40.554688 417.871094 32.152344 416.367188 23.621094 C 415.023438 15.996094 410.765625 9.390625 404.378906 5.011719 C 397.996094 0.636719 390.292969 -0.949219 382.703125 0.550781 L 334.449219 10.066406 C 315.054688 13.890625 297.429688 23.308594 283.476562 37.304688 L 266.816406 54.011719 L 210.03125 54.011719 C 205.90625 43.570312 195.71875 36.15625 183.828125 36.15625 C 180.617188 36.15625 177.535156 36.707031 174.65625 37.699219 C 171.316406 25.867188 160.433594 17.167969 147.546875 17.167969 C 144.144531 17.167969 140.878906 17.777344 137.859375 18.886719 C 134.007812 7.90625 123.546875 0.0078125 111.269531 0.0078125 C 98.988281 0.0078125 88.527344 7.90625 84.675781 18.886719 C 81.65625 17.777344 78.390625 17.167969 74.988281 17.167969 C 59.453125 17.167969 46.816406 29.808594 46.816406 45.34375 L 46.816406 101.800781 C 40.554688 96.621094 32.15625 94.128906 23.621094 95.632812 C 15.996094 96.976562 9.390625 101.234375 5.011719 107.621094 C 0.636719 114.003906 -0.949219 121.703125 0.550781 129.296875 L 10.066406 177.550781 C 13.890625 196.941406 23.308594 214.566406 37.304688 228.523438 L 54.011719 245.183594 L 54.011719 301.964844 C 43.566406 306.089844 36.15625 316.28125 36.15625 328.171875 C 36.15625 331.382812 36.703125 334.464844 37.699219 337.34375 C 25.867188 340.683594 17.167969 351.566406 17.167969 364.453125 C 17.167969 367.855469 17.773438 371.121094 18.886719 374.144531 C 7.90625 377.992188 0.00390625 388.453125 0.00390625 400.734375 C 0.00390625 413.011719 7.90625 423.472656 18.886719 427.324219 C 17.773438 430.34375 17.167969 433.609375 17.167969 437.011719 C 17.167969 452.546875 29.808594 465.183594 45.339844 465.183594 L 101.800781 465.183594 C 96.617188 471.445312 94.125 479.84375 95.632812 488.378906 C 96.976562 496.003906 101.230469 502.609375 107.617188 506.984375 C 112.433594 510.289062 117.996094 512 123.699219 512 C 125.554688 512 127.429688 511.816406 129.296875 511.449219 L 177.550781 501.933594 C 196.9375 498.113281 214.566406 488.691406 228.523438 474.695312 L 245.183594 457.988281 L 301.964844 457.988281 C 306.089844 468.433594 316.277344 475.84375 328.171875 475.84375 C 331.378906 475.84375 334.464844 475.296875 337.339844 474.300781 C 340.683594 486.132812 351.566406 494.832031 364.449219 494.832031 C 367.855469 494.832031 371.117188 494.222656 374.140625 493.113281 C 377.988281 504.09375 388.453125 511.992188 400.730469 511.992188 C 413.007812 511.992188 423.472656 504.09375 427.320312 493.113281 C 430.34375 494.222656 433.609375 494.832031 437.011719 494.832031 C 452.546875 494.832031 465.183594 482.191406 465.183594 466.660156 L 465.183594 410.199219 C 471.445312 415.378906 479.839844 417.875 488.378906 416.367188 C 496 415.023438 502.609375 410.765625 506.984375 404.382812 C 511.359375 397.996094 512.945312 390.296875 511.449219 382.703125 Z M 270.964844 74.011719 C 273.625 74.011719 276.171875 72.953125 278.046875 71.070312 L 297.636719 51.425781 C 308.777344 40.257812 322.84375 32.738281 338.316406 29.6875 L 386.570312 20.171875 C 388.851562 19.726562 391.160156 20.199219 393.074219 21.511719 C 394.992188 22.824219 396.269531 24.808594 396.671875 27.09375 C 397.453125 31.527344 394.640625 35.839844 390.273438 36.910156 L 370.21875 41.828125 C 363.894531 43.378906 359.867188 49.195312 360.648438 55.660156 C 361.429688 62.125 366.722656 66.816406 373.238281 66.816406 L 466.660156 66.816406 C 471.164062 66.816406 474.832031 70.484375 474.832031 74.988281 C 474.832031 79.164062 471.683594 82.613281 467.636719 83.097656 L 412.289062 83.160156 C 406.765625 83.160156 402.289062 87.640625 402.289062 93.160156 C 402.289062 98.683594 406.765625 103.160156 412.289062 103.160156 L 483.820312 103.097656 C 488.328125 103.097656 491.996094 106.765625 491.996094 111.269531 C 491.996094 115.777344 488.328125 119.441406 483.820312 119.441406 L 412.289062 119.441406 C 406.765625 119.441406 402.289062 123.917969 402.289062 129.441406 C 402.289062 134.964844 406.765625 139.441406 412.289062 139.441406 L 467.640625 139.441406 C 471.683594 139.929688 474.832031 143.375 474.832031 147.550781 C 474.832031 152.054688 471.164062 155.722656 466.660156 155.722656 L 412.289062 155.722656 C 406.765625 155.722656 402.289062 160.199219 402.289062 165.722656 C 402.289062 171.246094 406.765625 175.722656 412.289062 175.722656 L 448.648438 175.722656 C 452.691406 176.207031 455.84375 179.65625 455.84375 183.832031 C 455.84375 188.335938 452.175781 192.003906 447.671875 192.003906 L 346.683594 192.003906 C 325.527344 192.003906 305.648438 183.753906 290.710938 168.773438 L 278.050781 156.074219 C 276.171875 154.191406 273.625 153.136719 270.96875 153.136719 L 212 153.136719 L 212 74.011719 Z M 300.304688 338.867188 L 245.183594 338.867188 L 235.453125 329.109375 C 218.585938 312.195312 196.691406 302.132812 173.132812 300.304688 L 173.132812 245.183594 L 182.890625 235.453125 C 199.539062 218.851562 209.796875 196.484375 211.679688 173.132812 L 266.816406 173.132812 L 276.546875 182.890625 C 293.414062 199.808594 315.308594 209.871094 338.867188 211.695312 L 338.867188 266.820312 L 329.109375 276.550781 C 312.191406 293.414062 302.128906 315.308594 300.304688 338.867188 Z M 51.425781 214.363281 C 40.253906 203.222656 32.738281 189.15625 29.6875 173.683594 L 20.171875 125.429688 C 19.722656 123.152344 20.195312 120.839844 21.511719 118.925781 C 22.824219 117.007812 24.804688 115.730469 27.09375 115.328125 C 31.53125 114.550781 35.835938 117.359375 36.90625 121.730469 L 41.824219 141.78125 C 43.371094 148.105469 49.195312 152.125 55.65625 151.351562 C 62.121094 150.570312 66.8125 145.277344 66.8125 138.765625 L 66.8125 45.34375 C 66.8125 40.835938 70.480469 37.167969 74.988281 37.167969 C 79.160156 37.167969 82.609375 40.316406 83.09375 44.363281 L 83.160156 99.710938 C 83.160156 105.234375 87.636719 109.710938 93.15625 109.710938 C 98.679688 109.710938 103.15625 105.234375 103.15625 99.710938 L 103.15625 45.34375 C 103.15625 44.734375 103.132812 44.132812 103.09375 43.53125 L 103.09375 28.179688 C 103.09375 23.671875 106.757812 20.007812 111.265625 20.007812 C 115.773438 20.007812 119.4375 23.671875 119.4375 28.179688 L 119.4375 43.53125 C 119.402344 44.132812 119.375 44.734375 119.375 45.34375 L 119.4375 99.714844 C 119.4375 105.234375 123.917969 109.714844 129.4375 109.714844 C 134.960938 109.714844 139.4375 105.234375 139.4375 99.714844 L 139.4375 44.363281 C 139.925781 40.316406 143.371094 37.167969 147.546875 37.167969 C 152.054688 37.167969 155.71875 40.835938 155.71875 45.34375 C 155.71875 45.34375 155.679688 93.988281 155.71875 94.355469 L 155.71875 99.710938 C 155.71875 105.234375 160.199219 109.710938 165.71875 109.710938 C 171.242188 109.710938 175.71875 105.234375 175.71875 99.710938 L 175.71875 63.351562 C 176.203125 59.304688 179.652344 56.15625 183.828125 56.15625 C 188.332031 56.15625 192 59.824219 192 64.332031 L 192 165.316406 C 192 186.167969 183.53125 206.570312 168.769531 221.292969 L 156.070312 233.953125 C 154.191406 235.828125 153.132812 238.375 153.132812 241.035156 L 153.132812 300 L 133.132812 300 L 133.132812 273.449219 C 133.132812 267.925781 128.65625 263.449219 123.132812 263.449219 C 117.613281 263.449219 113.132812 267.925781 113.132812 273.449219 L 113.132812 300 L 74.007812 300 L 74.007812 241.035156 C 74.007812 238.375 72.949219 235.828125 71.070312 233.953125 Z M 241.03125 437.988281 C 238.375 437.988281 235.828125 439.046875 233.949219 440.929688 L 214.359375 460.574219 C 203.222656 471.746094 189.15625 479.261719 173.679688 482.3125 L 125.425781 491.828125 C 123.144531 492.277344 120.835938 491.800781 118.921875 490.488281 C 117.003906 489.171875 115.726562 487.191406 115.324219 484.90625 C 114.542969 480.472656 117.355469 476.164062 121.726562 475.089844 L 141.78125 470.175781 C 148.105469 468.625 152.128906 462.804688 151.347656 456.339844 C 150.566406 449.875 145.273438 445.183594 138.761719 445.183594 L 45.339844 445.183594 C 40.832031 445.183594 37.167969 441.519531 37.167969 437.011719 C 37.167969 432.835938 40.320312 429.386719 44.367188 428.902344 L 99.710938 428.839844 C 105.234375 428.839844 109.710938 424.363281 109.710938 418.839844 C 109.710938 413.320312 105.234375 408.839844 99.710938 408.839844 L 28.179688 408.902344 C 23.671875 408.902344 20.003906 405.238281 20.003906 400.730469 C 20.003906 396.226562 23.671875 392.558594 28.179688 392.558594 L 99.710938 392.558594 C 105.234375 392.558594 109.710938 388.082031 109.710938 382.558594 C 109.710938 377.039062 105.234375 372.558594 99.710938 372.558594 L 44.367188 372.558594 C 40.320312 372.078125 37.167969 368.628906 37.167969 364.453125 C 37.167969 359.945312 40.832031 356.28125 45.339844 356.28125 L 99.710938 356.28125 C 105.234375 356.28125 109.710938 351.800781 109.710938 346.28125 C 109.710938 340.757812 105.234375 336.28125 99.710938 336.28125 L 63.355469 336.28125 C 59.308594 335.796875 56.15625 332.347656 56.15625 328.171875 C 56.15625 323.664062 59.824219 320 64.328125 320 L 165.316406 320 C 186.472656 320 206.351562 328.25 221.289062 343.230469 L 233.953125 355.925781 C 235.828125 357.808594 238.375 358.867188 241.03125 358.867188 L 300 358.867188 L 300 437.988281 Z M 490.488281 393.078125 C 489.175781 394.992188 487.191406 396.269531 484.902344 396.671875 C 480.464844 397.460938 476.160156 394.644531 475.089844 390.273438 L 470.171875 370.21875 C 468.621094 363.890625 462.796875 359.875 456.339844 360.652344 C 449.875 361.433594 445.183594 366.726562 445.183594 373.238281 L 445.183594 466.660156 C 445.183594 471.167969 441.519531 474.832031 437.011719 474.832031 C 432.835938 474.832031 429.386719 471.679688 428.902344 467.632812 L 428.839844 412.289062 C 428.839844 406.765625 424.363281 402.289062 418.839844 402.289062 C 413.320312 402.289062 408.839844 406.765625 408.839844 412.289062 L 408.902344 483.824219 C 408.902344 488.328125 405.238281 491.996094 400.730469 491.996094 C 396.226562 491.996094 392.558594 488.328125 392.558594 483.824219 L 392.558594 412.289062 C 392.558594 406.765625 388.082031 402.289062 382.558594 402.289062 C 377.039062 402.289062 372.558594 406.765625 372.558594 412.289062 L 372.558594 467.632812 C 372.078125 471.679688 368.628906 474.832031 364.449219 474.832031 C 359.945312 474.832031 356.277344 471.167969 356.277344 466.660156 L 356.277344 412.289062 C 356.277344 406.765625 351.800781 402.289062 346.277344 402.289062 C 340.757812 402.289062 336.277344 406.765625 336.277344 412.289062 L 336.277344 448.652344 C 335.792969 452.695312 332.34375 455.84375 328.171875 455.84375 C 323.664062 455.84375 319.996094 452.179688 319.996094 447.671875 L 319.996094 346.683594 C 319.996094 325.527344 328.25 305.652344 343.230469 290.710938 L 355.925781 278.050781 C 357.808594 276.171875 358.867188 273.625 358.867188 270.96875 L 358.867188 212.003906 L 397.4375 212.003906 L 397.4375 242.335938 C 397.4375 247.859375 401.914062 252.335938 407.433594 252.335938 C 412.957031 252.335938 417.433594 247.859375 417.433594 242.335938 L 417.433594 212.003906 L 437.988281 212.003906 L 437.988281 270.96875 C 437.988281 273.625 439.046875 276.171875 440.925781 278.050781 L 460.574219 297.640625 C 471.742188 308.777344 479.261719 322.84375 482.308594 338.320312 L 491.828125 386.574219 C 492.277344 388.851562 491.800781 391.160156 490.488281 393.078125 Z M 490.488281 393.078125 " style=" stroke:none;fill-rule:nonzero;fill:rgb(0%,0%,0%);fill-opacity:1;" />
<path d="M 407.433594 269.949219 C 404.804688 269.949219 402.226562 271.019531 400.367188 272.878906 C 398.503906 274.738281 397.433594 277.320312 397.433594 279.960938 C 397.433594 282.589844 398.503906 285.167969 400.367188 287.03125 C 402.226562 288.886719 404.804688 289.949219 407.433594 289.949219 C 410.066406 289.949219 412.644531 288.886719 414.503906 287.03125 C 416.363281 285.160156 417.433594 282.589844 417.433594 279.960938 C 417.433594 277.328125 416.367188 274.75 414.503906 272.878906 C 412.644531 271.019531 410.0625 269.949219 407.433594 269.949219 Z M 407.433594 269.949219 " style=" stroke:none;fill-rule:nonzero;fill:rgb(0%,0%,0%);fill-opacity:1;" />
<path d="M 123.132812 245.832031 C 125.761719 245.832031 128.34375 244.761719 130.203125 242.902344 C 132.0625 241.039062 133.132812 238.460938 133.132812 235.832031 C 133.132812 233.191406 132.0625 230.621094 130.203125 228.761719 C 128.34375 226.890625 125.761719 225.832031 123.132812 225.832031 C 120.503906 225.832031 117.921875 226.890625 116.0625 228.761719 C 114.203125 230.621094 113.132812 233.191406 113.132812 235.832031 C 113.132812 238.460938 114.203125 241.039062 116.0625 242.902344 C 117.921875 244.761719 120.503906 245.832031 123.132812 245.832031 Z M 123.132812 245.832031 " style=" stroke:none;fill-rule:nonzero;fill:rgb(0%,0%,0%);fill-opacity:1;" />
</g>
</svg>